<svg width="34" height="38" viewBox="0 0 34 38" fill="none" xmlns="http://www.w3.org/2000/svg">
<path d="M5.69959 13.48L7.13959 19.72M5.69962 10.12L6.10396 5.55852C6.33267 2.97831 8.4941 1 11.0844 1H15.6746C18.265 1 20.4264 2.97831 20.6551 5.55852L21.0595 10.12M0.560944 12.1251L3.77968 25H22.0197L25.2384 12.1251C25.554 10.8628 24.5993 9.64 23.2981 9.64H2.50123C1.20009 9.64 0.245371 10.8628 0.560944 12.1251Z" stroke="white"/>
<g filter="url(#filter0_d_230_9555)">
<rect x="9.79883" y="13.5" width="20" height="20" rx="10" fill="#CFEE13" shape-rendering="crispEdges"/>
<path d="M16.572 25.06C15.9654 25.06 15.442 24.85 15.002 24.43C14.562 24.01 14.342 23.4933 14.342 22.88C14.342 22.3067 14.562 21.8067 15.002 21.38C15.4487 20.9467 15.9987 20.73 16.652 20.73C17.4187 20.73 18.0287 21 18.482 21.54C18.9354 22.08 19.162 22.9133 19.162 24.04C19.162 24.5067 19.112 24.9467 19.012 25.36C18.912 25.7733 18.7587 26.1533 18.552 26.5C18.352 26.8467 18.0787 27.1233 17.732 27.33C17.3854 27.53 16.9854 27.63 16.532 27.63C15.532 27.63 14.8354 27.1467 14.442 26.18H15.112C15.3787 26.7267 15.852 27 16.532 27C17.0787 27 17.5354 26.7567 17.902 26.27C18.2754 25.7767 18.4687 25.0867 18.482 24.2C18.2954 24.4533 18.0354 24.66 17.702 24.82C17.3687 24.98 16.992 25.06 16.572 25.06ZM16.682 21.36C16.2354 21.36 15.8487 21.5067 15.522 21.8C15.1954 22.0867 15.032 22.4433 15.032 22.87C15.032 23.3167 15.1954 23.69 15.522 23.99C15.8487 24.2833 16.2354 24.43 16.682 24.43C17.142 24.43 17.5254 24.2833 17.832 23.99C18.1454 23.6967 18.302 23.3233 18.302 22.87C18.302 22.4367 18.1454 22.0767 17.832 21.79C17.5254 21.5033 17.142 21.36 16.682 21.36ZM22.5388 25.06C21.9322 25.06 21.4088 24.85 20.9688 24.43C20.5288 24.01 20.3088 23.4933 20.3088 22.88C20.3088 22.3067 20.5288 21.8067 20.9688 21.38C21.4155 20.9467 21.9655 20.73 22.6188 20.73C23.3855 20.73 23.9955 21 24.4488 21.54C24.9022 22.08 25.1288 22.9133 25.1288 24.04C25.1288 24.5067 25.0788 24.9467 24.9788 25.36C24.8788 25.7733 24.7255 26.1533 24.5188 26.5C24.3188 26.8467 24.0455 27.1233 23.6988 27.33C23.3522 27.53 22.9522 27.63 22.4988 27.63C21.4988 27.63 20.8022 27.1467 20.4088 26.18H21.0788C21.3455 26.7267 21.8188 27 22.4988 27C23.0455 27 23.5022 26.7567 23.8688 26.27C24.2422 25.7767 24.4355 25.0867 24.4488 24.2C24.2622 24.4533 24.0022 24.66 23.6688 24.82C23.3355 24.98 22.9588 25.06 22.5388 25.06ZM22.6488 21.36C22.2022 21.36 21.8155 21.5067 21.4888 21.8C21.1622 22.0867 20.9988 22.4433 20.9988 22.87C20.9988 23.3167 21.1622 23.69 21.4888 23.99C21.8155 24.2833 22.2022 24.43 22.6488 24.43C23.1088 24.43 23.4922 24.2833 23.7988 23.99C24.1122 23.6967 24.2688 23.3233 24.2688 22.87C24.2688 22.4367 24.1122 22.0767 23.7988 21.79C23.4922 21.5033 23.1088 21.36 22.6488 21.36Z" fill="black"/>
</g>
<defs>
<filter id="filter0_d_230_9555" x="5.79883" y="9.5" width="28" height="28" filterUnits="userSpaceOnUse" color-interpolation-filters="sRGB">
<feFlood flood-opacity="0" result="BackgroundImageFix"/>
<feColorMatrix in="SourceAlpha" type="matrix" values="0 0 0 0 0 0 0 0 0 0 0 0 0 0 0 0 0 0 127 0" result="hardAlpha"/>
<feOffset/>
<feGaussianBlur stdDeviation="2"/>
<feComposite in2="hardAlpha" operator="out"/>
<feColorMatrix type="matrix" values="0 0 0 0 0.811765 0 0 0 0 0.933333 0 0 0 0 0.0745098 0 0 0 0.25 0"/>
<feBlend mode="normal" in2="BackgroundImageFix" result="effect1_dropShadow_230_9555"/>
<feBlend mode="normal" in="SourceGraphic" in2="effect1_dropShadow_230_9555" result="shape"/>
</filter>
</defs>
</svg>
